nColumns=19
nRows=102
DataType=double
version=3
OpenSimVersion=4.1
endheader
time	ground_force_1_vx	ground_force_1_vy	ground_force_1_vz	ground_force_1_px	ground_force_1_py	ground_force_1_pz	ground_force_1_mx	ground_force_1_my	ground_force_1_mz	ground_force_2_vx	ground_force_2_vy	ground_force_2_vz	ground_force_2_px	ground_force_2_py	ground_force_2_pz	ground_force_2_mx	ground_force_2_my	ground_force_2_mz
2.69	0	0	0	-0.000918456	0	-0.000109895	0	0	0	285.549	1601.17	9.3604	0.495532	0	-0.385917	0	-2.53151	0
2.7	0	0	0	-0.000918437	0	-0.000109894	0	0	0	309.656	1199.09	-1.15308	0.45254	0	-0.386316	-0	0.606712	-0
2.71	0	0	0	-0.000918415	0	-0.000109892	0	0	0	273.774	794.369	-8.69581	0.409945	0	-0.38867	-0	3.3308	-0
2.72	0	0	0	-0.000918391	0	-0.00010989	0	0	0	196.82	450.168	-8.93736	0.371925	0	-0.390997	-0	4.97408	-0
2.73	0	0	0	-0.000918364	0	-0.000109887	0	0	0	105.784	212.253	-4.96279	0.361547	0	-0.390548	-0	5.30344	-0
2.74	0	0	0	-0.000918335	0	-0.000109885	0	0	0	38.228	78.7582	-1.6837	0.395264	0	-0.387877	-0	4.5671	-0
2.75	0	0	0	-0.000918304	0	-0.000109882	0	0	0	10.068	24.2265	-0.520119	0.504059	0	-0.366912	-0	3.29073	-0
2.76	0	0	0	-0.000918271	0	-0.000109879	0	0	0	0	0	0	-0.000917522	0	-0.000109842	0	0	0
2.77	0	0	0	-0.000918235	0	-0.000109876	0	0	0	0	0	0	-0.000917486	0	-0.000109839	0	0	0
2.78	0	0	0	-0.000918198	0	-0.000109873	0	0	0	0	0	0	-0.000917449	0	-0.000109836	0	0	0
2.79	0	0	0	-0.000918157	0	-0.000109869	0	0	0	0	0	0	-0.000917409	0	-0.000109833	0	0	0
2.8	0	0	0	-0.000918115	0	-0.000109866	0	0	0	0	0	0	-0.000917367	0	-0.000109829	0	0	0
2.81	0	0	0	-0.00091807	0	-0.000109862	0	0	0	0	0	0	-0.000917323	0	-0.000109825	0	0	0
2.82	0	0	0	-0.000918024	0	-0.000109858	0	0	0	0	0	0	-0.000917277	0	-0.000109821	0	0	0
2.83	0	0	0	-0.000917974	0	-0.000109853	0	0	0	0	0	0	-0.000917228	0	-0.000109817	0	0	0
2.84	0	0	0	-0.000917923	0	-0.000109849	0	0	0	0	0	0	-0.000917177	0	-0.000109812	0	0	0
2.85	0	0	0	-0.00091787	0	-0.000109844	0	0	0	0	0	0	-0.000917124	0	-0.000109808	0	0	0
2.86	0	0	0	-0.000917814	0	-0.000109839	0	0	0	0	0	0	-0.000917069	0	-0.000109803	0	0	0
2.87	-15.6662	38.3485	-7.80949	0.855876	0	-0.210424	0	-1.4142	0	0	0	0	-0.000917012	0	-0.000109798	0	0	0
2.88	-57.4194	142.132	-19.9209	0.910431	0	-0.225894	0	-0.062177	0	0	0	0	-0.000916952	0	-0.000109793	0	0	0
2.89	-142.724	395.722	-39.3863	0.918848	0	-0.232311	-0	1.57169	-0	0	0	0	-0.00091689	0	-0.000109788	0	0	0
2.9	-228.335	795.478	-60.8069	0.899967	0	-0.238352	-0	2.80651	-0	0	0	0	-0.000916826	0	-0.000109782	0	0	0
2.91	-255.628	1245.45	-71.769	0.862921	0	-0.245711	-0	3.07441	-0	0	0	0	-0.00091676	0	-0.000109776	0	0	0
2.92	-256.78	1653.58	-62.4758	0.821626	0	-0.252589	-0	2.32759	-0	0	0	0	-0.000916692	0	-0.000109771	0	0	0
2.93	-269.929	1945.34	-40.1539	0.785118	0	-0.25688	-0	1.18751	-0	0	0	0	-0.000916622	0	-0.000109764	0	0	0
2.94	-264.307	2121.12	-28.3186	0.749645	0	-0.258787	-0	0.621252	-0	0	0	0	-0.00091655	0	-0.000109758	0	0	0
2.95	-207.874	2226.23	-41.0857	0.710779	0	-0.259105	-0	1.31116	-0	0	0	0	-0.000916475	0	-0.000109752	0	0	0
2.96	-116.296	2271.85	-66.5041	0.669791	0	-0.257774	-0	3.21127	-0	0	0	0	-0.000916399	0	-0.000109745	0	0	0
2.97	-13.0698	2244.79	-85.2211	0.628318	0	-0.255221	-0	5.62509	-0	0	0	0	-0.00091632	0	-0.000109738	0	0	0
2.98	100.089	2139.18	-91.447	0.585415	0	-0.252864	-0	7.65148	-0	0	0	0	-0.00091624	0	-0.000109731	0	0	0
2.99	208.417	1957.81	-87.463	0.541874	0	-0.251504	-0	8.62097	-0	0	0	0	-0.000916157	0	-0.000109724	0	0	0
3	290.263	1704.28	-74.2326	0.499833	0	-0.250466	-0	8.31438	-0	0	0	0	-0.000916072	0	-0.000109717	0	0	0
3.01	335.6	1383.69	-55.4006	0.458856	0	-0.249139	-0	6.94967	-0	0	0	0	-0.000915985	0	-0.000109709	0	0	0
3.02	335.484	1016.66	-38.3582	0.414391	0	-0.247697	-0	4.99505	-0	0	0	0	-0.000915897	0	-0.000109702	0	0	0
3.03	285.878	656.699	-26.4669	0.363334	0	-0.246344	-0	2.93533	-0	0	0	0	-0.000915806	0	-0.000109694	0	0	0
3.04	196.98	370.673	-16.3753	0.3251	0	-0.244429	-0	1.14105	-0	0	0	0	-0.000915713	0	-0.000109686	0	0	0
3.05	100.422	183.339	-5.28828	0.349567	0	-0.237381	0	-0.135245	0	0	0	0	-0.000915618	0	-0.000109678	0	0	0
3.06	34.0639	76.675	3.05368	0.459622	0	-0.215419	0	-0.754827	0	0	0	0	-0.000915522	0	-0.000109669	0	0	0
3.07	7.76435	25.1159	4.1725	0.61527	0	-0.177624	0	-0.755812	0	0	0	0	-0.000915423	0	-0.000109661	0	0	0
3.08	0	0	0	-0.000916051	0	-0.000109685	0	0	0	0	0	0	-0.000915323	0	-0.000109652	0	0	0
3.09	0	0	0	-0.000915947	0	-0.000109676	0	0	0	0	0	0	-0.00091522	0	-0.000109643	0	0	0
3.1	0	0	0	-0.000915842	0	-0.000109667	0	0	0	0	0	0	-0.000915116	0	-0.000109634	0	0	0
3.11	0	0	0	-0.000915735	0	-0.000109658	0	0	0	0	0	0	-0.00091501	0	-0.000109625	0	0	0
3.12	0	0	0	-0.000915626	0	-0.000109648	0	0	0	0	0	0	-0.000914902	0	-0.000109616	0	0	0
3.13	0	0	0	-0.000915515	0	-0.000109638	0	0	0	0	0	0	-0.000914792	0	-0.000109606	0	0	0
3.14	0	0	0	-0.000915402	0	-0.000109629	0	0	0	0	0	0	-0.00091468	0	-0.000109597	0	0	0
3.15	0	0	0	-0.000915287	0	-0.000109619	0	0	0	0	0	0	-0.000914567	0	-0.000109587	0	0	0
3.16	0	0	0	-0.000915171	0	-0.000109608	0	0	0	0	0	0	-0.000914452	0	-0.000109577	0	0	0
3.17	0	0	0	-0.000915053	0	-0.000109598	0	0	0	0	0	0	-0.000914335	0	-0.000109567	0	0	0
3.18	0	0	0	-0.000914933	0	-0.000109588	0	0	0	-15.4854	32.5136	-1.95966	0.819498	0	-0.42415	-0	7.60208	-0
3.19	0	0	0	-0.000914811	0	-0.000109577	0	0	0	-50.6701	131.465	3.94267	0.851368	0	-0.45257	-0	5.43956	-0
3.2	0	0	0	-0.000914688	0	-0.000109566	0	0	0	-125.595	395.754	27.105	0.863247	0	-0.446746	-0	1.00626	-0
3.21	0	0	0	-0.000914563	0	-0.000109555	0	0	0	-198.427	837.628	70.9293	0.856675	0	-0.433474	0	-4.69648	0
3.22	0	0	0	-0.000914436	0	-0.000109544	0	0	0	-225.058	1329.26	112.178	0.832836	0	-0.421071	0	-10.0296	0
3.23	0	0	0	-0.000914308	0	-0.000109533	0	0	0	-238.866	1740.64	116.145	0.799181	0	-0.414605	0	-13.6152	0
3.24	0	0	0	-0.000914178	0	-0.000109522	0	0	0	-245.981	2020.64	85.8182	0.763264	0	-0.413861	0	-15.1465	0
3.25	0	0	0	-0.000914046	0	-0.00010951	0	0	0	-224.918	2206.97	65.0793	0.727107	0	-0.413746	0	-15.3422	0
3.26	0	0	0	-0.000913913	0	-0.000109498	0	0	0	-176.033	2335.82	79.0713	0.691497	0	-0.412156	0	-15.092	0
3.27	0	0	0	-0.000913778	0	-0.000109487	0	0	0	-97.7524	2384.43	104.376	0.653951	0	-0.411761	0	-14.6938	0
3.28	0	0	0	-0.000913641	0	-0.000109475	0	0	0	8.81598	2331.64	111.282	0.611417	0	-0.413776	0	-13.8315	0
3.29	0	0	0	-0.000913503	0	-0.000109463	0	0	0	126.009	2189.08	102.452	0.565558	0	-0.415636	0	-12.0279	0
3.3	0	0	0	-0.000913364	0	-0.000109451	0	0	0	228.591	1971.69	92.7751	0.521463	0	-0.414826	0	-9.01117	0
3.31	0	0	0	-0.000913223	0	-0.000109438	0	0	0	300.446	1682.44	80.3424	0.480834	0	-0.412281	0	-4.87817	0
3.32	0	0	0	-0.00091308	0	-0.000109426	0	0	0	326.657	1323.85	57.0542	0.441161	0	-0.411183	0	-0.183991	0
3.33	0	0	0	-0.000912937	0	-0.000109413	0	0	0	302.035	927.757	28.7586	0.398211	0	-0.413126	-0	4.12151	-0
3.34	0	0	0	-0.000912791	0	-0.0001094	0	0	0	235.048	560.682	8.96345	0.349506	0	-0.416871	-0	7.0495	-0
3.35	0	0	0	-0.000912644	0	-0.000109388	0	0	0	143.459	286.964	1.82673	0.313086	0	-0.418114	-0	8.05455	-0
3.36	0	0	0	-0.000912496	0	-0.000109375	0	0	0	58.816	122.046	0.975172	0.341113	0	-0.412359	-0	7.28034	-0
3.37	0	0	0	-0.000912347	0	-0.000109362	0	0	0	14.0293	41.3583	0.280623	0.449488	0	-0.395483	-0	5.41066	-0
3.38	0	0	0	-0.000912196	0	-0.000109348	0	0	0	2.38849	14.0029	-0.820208	0.613883	0	-0.321134	-0	3.29506	-0
3.39	0	0	0	-0.000912044	0	-0.000109335	0	0	0	0	0	0	-0.000911355	0	-0.000109309	0	0	0
3.4	0	0	0	-0.00091189	0	-0.000109322	0	0	0	0	0	0	-0.000911203	0	-0.000109296	0	0	0
3.41	0	0	0	-0.000911736	0	-0.000109308	0	0	0	0	0	0	-0.000911049	0	-0.000109283	0	0	0
3.42	0	0	0	-0.00091158	0	-0.000109295	0	0	0	0	0	0	-0.000910895	0	-0.000109269	0	0	0
3.43	0	0	0	-0.000911423	0	-0.000109281	0	0	0	0	0	0	-0.000910739	0	-0.000109256	0	0	0
3.44	0	0	0	-0.000911264	0	-0.000109267	0	0	0	0	0	0	-0.000910583	0	-0.000109242	0	0	0
3.45	0	0	0	-0.000911105	0	-0.000109253	0	0	0	0	0	0	-0.000910425	0	-0.000109229	0	0	0
3.46	0	0	0	-0.000910944	0	-0.000109239	0	0	0	0	0	0	-0.000910265	0	-0.000109215	0	0	0
3.47	0	0	0	-0.000910783	0	-0.000109225	0	0	0	0	0	0	-0.000910105	0	-0.000109201	0	0	0
3.48	-9.27205	24.0609	-7.65589	0.872229	0	-0.201091	-0	0.68495	-0	0	0	0	-0.000909944	0	-0.000109187	0	0	0
3.49	-35.958	100.755	-19.2052	0.924597	0	-0.209031	-0	1.22403	-0	0	0	0	-0.000909782	0	-0.000109173	0	0	0
3.5	-100.907	321.796	-38.3308	0.927819	0	-0.210959	-0	1.8999	-0	0	0	0	-0.000909618	0	-0.000109159	0	0	0
3.51	-185.854	720.526	-61.2115	0.913819	0	-0.215995	-0	2.30524	-0	0	0	0	-0.000909454	0	-0.000109145	0	0	0
3.52	-234.348	1176.95	-76.0795	0.885388	0	-0.223054	-0	2.15242	-0	0	0	0	-0.000909289	0	-0.00010913	0	0	0
3.53	-265.038	1545.38	-73.8848	0.852143	0	-0.229182	-0	1.57694	-0	0	0	0	-0.000909122	0	-0.000109116	0	0	0
3.54	-315.508	1784.61	-64.3302	0.821696	0	-0.232414	-0	1.19144	-0	0	0	0	-0.000908955	0	-0.000109101	0	0	0
3.55	-334.743	1952.26	-69.2533	0.788582	0	-0.234081	-0	1.73769	-0	0	0	0	-0.000908787	0	-0.000109087	0	0	0
3.56	-287.705	2099.9	-93.762	0.749641	0	-0.234995	-0	3.55866	-0	0	0	0	-0.000908618	0	-0.000109072	0	0	0
3.57	-202.835	2212.22	-120.213	0.709615	0	-0.234185	-0	6.3416	-0	0	0	0	-0.000908448	0	-0.000109058	0	0	0
3.58	-105.182	2252.42	-134.607	0.66955	0	-0.232452	-0	9.30726	-0	0	0	0	-0.000908278	0	-0.000109043	0	0	0
3.59	9.01322	2202.32	-137.556	0.626671	0	-0.231583	-0	11.5989	-0	0	0	0	-0.000908106	0	-0.000109028	0	0	0
3.6	130.003	2065.66	-130.348	0.581563	0	-0.231616	-0	12.5951	-0	0	0	0	-0.000907934	0	-0.000109013	0	0	0
3.61	230.903	1855.18	-111.993	0.538415	0	-0.231519	-0	12.0769	-0	0	0	0	-0.000907761	0	-0.000108998	0	0	0
3.62	297.836	1570	-87.54	0.498069	0	-0.231185	-0	10.2438	-0	0	0	0	-0.000907588	0	-0.000108983	0	0	0
3.63	322.972	1214.01	-64.7185	0.456028	0	-0.231033	-0	7.57315	-0	0	0	0	-0.000907413	0	-0.000108968	0	0	0
3.64	299.223	828.169	-45.9565	0.405886	0	-0.230608	-0	4.61782	-0	0	0	0	-0.000907238	0	-0.000108953	0	0	0
3.65	224.809	488.393	-29.6188	0.358286	0	-0.229093	-0	1.87171	-0	0	0	0	-0.000907063	0	-0.000108938	0	0	0
3.66	122.302	248.921	-14.8336	0.359086	0	-0.224917	0	-0.275729	0	0	0	0	-0.000906887	0	-0.000108923	0	0	0
3.67	42.7511	105.873	-3.56989	0.435218	0	-0.212166	0	-1.5745	0	0	0	0	-0.00090671	0	-0.000108907	0	0	0
3.68	8.92081	35.2283	1.46329	0.552107	0	-0.181634	0	-1.98089	0	0	0	0	-0.000906533	0	-0.000108892	0	0	0
3.69	0	0	0	-0.000906996	0	-0.000108894	0	0	0	0	0	0	-0.000906355	0	-0.000108877	0	0	0
3.7	0	0	0	-0.000906816	0	-0.000108878	0	0	0	0	0	0	-0.000906177	0	-0.000108861	0	0	0
